# File created by Blade
# Date/Time:  Tue Sep 30 19:29:15 2014
#---------------------------------------------------------
:version 1.10
:name HOM
:units
  mass 1.0
  length 1.000000
  angle deg
:documentation
     Acclaim Skeleton File
:root
   axis xyz
   order TX TY TZ RX RY RZ
   position 0.000000 0.000000 0.000000
   orientation 0 0 0
:bonedata
   begin
      id 1
      name RightUpLeg_dum
      direction -1.000000 0.000000 0.000000
      length 3.766986
      axis 0.0 0.0 0.0 xyz
   end
   begin
      id 2
      name LeftUpLeg_dum
      direction 1.000000 0.000000 0.000000
      length 3.766986
      axis 0.0 0.0 0.0 xyz
   end
   begin
      id 3
      name Spine_dum
      direction 0.000000 1.000000 0.000000
      length 7.779697
      axis 0.0 0.0 0.0 xyz
   end
   begin
      id 4
      name RightUpLeg
      direction 0.000000 -1.000000 0.000000
      length 18.017682
      axis 0.0 0.0 0.0 xyz
      dof rx ry rz
   end
   begin
      id 5
      name RightLeg
      direction 0.000000 -1.000000 0.000000
      length 16.881075
      axis 0.0 0.0 0.0 xyz
      dof rx ry rz
   end
   begin
      id 6
      name RightFoot
      direction 0.000000 -0.258819 0.965926
      length 5.770812
      axis 15.0 0.0 0.0 xyz
      dof rx ry rz
   end
   begin
      id 7
      name RightToeBase
      direction 0.000000 0.000000 1.000000
      length 2.952750
      axis 0.0 0.0 0.0 xyz
      dof rx ry rz
   end
   begin
      id 8
      name LeftUpLeg
      direction 0.000000 -1.000000 0.000000
      length 18.017682
      axis 0.0 0.0 0.0 xyz
      dof rx ry rz
   end
   begin
      id 9
      name LeftLeg
      direction 0.000000 -1.000000 0.000000
      length 16.881075
      axis 0.0 0.0 0.0 xyz
      dof rx ry rz
   end
   begin
      id 10
      name LeftFoot
      direction 0.000000 -0.258819 0.965926
      length 5.770812
      axis 15.0 0.0 0.0 xyz
      dof rx ry rz
   end
   begin
      id 11
      name LeftToeBase
      direction 0.000000 0.000000 1.000000
      length 2.952750
      axis 0.0 0.0 0.0 xyz
      dof rx ry rz
   end
   begin
      id 12
      name Spine
      direction 0.000000 1.000000 0.000000
      length 0.000000
      axis 0.0 0.0 0.0 xyz
      dof rx ry rz
   end
   begin
      id 13
      name Spine_dum1
      direction 0.000000 1.000000 0.000000
      length 10.941760
      axis 0.0 0.0 0.0 xyz
   end
   begin
      id 14
      name Spine_dum2
      direction 0.000000 1.000000 0.000000
      length 10.941760
      axis 0.0 0.0 0.0 xyz
   end
   begin
      id 15
      name Spine_dum3
      direction 0.000000 1.000000 0.000000
      length 16.646042
      axis 0.0 0.0 0.0 xyz
   end
   begin
      id 16
      name RightShoulder
      direction -1.000000 0.000000 0.000000
      length 7.708937
      axis 0.0 0.0 90.0 xyz
      dof rx ry rz
   end
   begin
      id 17
      name RightArm
      direction -1.000000 0.000000 0.000000
      length 11.521345
      axis 0.0 0.0 90.0 xyz
      dof rx ry rz
   end
   begin
      id 18
      name RightForeArm
      direction -1.000000 0.000000 0.000000
      length 10.175898
      axis 0.0 0.0 90.0 xyz
      dof ry rz rx
   end
   begin
      id 19
      name RightHand
      direction -1.000000 0.000000 0.000000
      length 0.000000
      axis 0.0 0.0 90.0 xyz
      dof rx ry rz
   end
   begin
      id 20
      name RightHand_dum1
      direction -1.000000 0.000000 0.000000
      length 3.937000
      axis 0.0 0.0 90.0 xyz
   end
   begin
      id 21
      name RightHand_dum2
      direction 0.000000 0.000000 0.000000
      length 0.000000
      axis 0.0 0.0 90.0 xyz
   end
   begin
      id 22
      name RightHandThumb1
      direction 0.000000 0.000000 1.000000
      length 3.937000
      axis 0.0 0.0 90.0 xyz
      dof rx rz ry
   end
   begin
      id 23
      name LeftShoulder
      direction 1.000000 0.000000 0.000000
      length 7.708937
      axis 0.0 0.0 -90.0 xyz
      dof rx ry rz
   end
   begin
      id 24
      name LeftArm
      direction 1.000000 0.000000 0.000000
      length 11.521345
      axis 0.0 0.0 -90.0 xyz
      dof rx ry rz
   end
   begin
      id 25
      name LeftForeArm
      direction 1.000000 0.000000 0.000000
      length 10.175898
      axis 0.0 0.0 -90.0 xyz
      dof ry rz rx
   end
   begin
      id 26
      name LeftHand
      direction 1.000000 0.000000 0.000000
      length 0.000000
      axis 0.0 0.0 -90.0 xyz
      dof rx ry rz
   end
   begin
      id 27
      name LeftHand_dum1
      direction 1.000000 0.000000 0.000000
      length 3.937000
      axis 0.0 0.0 -90.0 xyz
   end
   begin
      id 28
      name LeftHand_dum2
      direction 0.000000 0.000000 0.000000
      length 0.000000
      axis 0.0 0.0 -90.0 xyz
   end
   begin
      id 29
      name LeftHandThumb1
      direction 0.000000 0.000000 1.000000
      length 3.937000
      axis 0.0 0.0 -90.0 xyz
      dof rx rz ry
   end
   begin
      id 30
      name Head
      direction 0.000000 1.000000 0.000000
      length 4.527550
      axis 0.0 0.0 0.0 xyz
      dof rx ry rz
   end
:hierarchy
   begin
      root RightUpLeg_dum LeftUpLeg_dum Spine_dum
      RightUpLeg_dum RightUpLeg
      LeftUpLeg_dum LeftUpLeg
      Spine_dum Spine
      RightUpLeg RightLeg
      RightLeg RightFoot
      RightFoot RightToeBase
      LeftUpLeg LeftLeg
      LeftLeg LeftFoot
      LeftFoot LeftToeBase
      Spine Spine_dum1 Spine_dum2 Spine_dum3
      Spine_dum1 RightShoulder
      Spine_dum2 LeftShoulder
      Spine_dum3 Head
      RightShoulder RightArm
      RightArm RightForeArm
      RightForeArm RightHand
      RightHand RightHand_dum1 RightHand_dum2
      RightHand_dum2 RightHandThumb1
      LeftShoulder LeftArm
      LeftArm LeftForeArm
      LeftForeArm LeftHand
      LeftHand LeftHand_dum1 LeftHand_dum2
      LeftHand_dum2 LeftHandThumb1
   end

# File created by Blade
# Date/Time:  Mon Sep 22 16:45:27 2014
# Frame Rate: 120.000 fps
#------------------------------------------------------
:FULLY-SPECIFIED
:DEGREES
810
root 3.182710 36.530295 2.795997 -36.461777 -18.869781 9.082269
RightUpLeg 29.773866 -1.778808 -5.650270
RightLeg 26.431633 -0.000000 -0.000000
RightFoot -27.117808 4.400481 11.286398
RightToeBase 14.495301 -0.000000 -0.000000
LeftUpLeg -81.570608 -1.112104 -31.404718
LeftLeg 119.559434 -0.000000 -0.000000
LeftFoot 15.643174 3.045016 -43.921705
LeftToeBase 1.021137 -0.000000 -0.000000
Spine 41.471839 16.567043 7.661290
RightShoulder 10.134275 -7.699351 -24.724844
RightArm 31.903785 18.906920 43.081654
RightForeArm -2.768673 0.000000 74.884196
RightHand -1.335520 -0.000000 -13.983345
RightHandThumb1 -24.326973 -0.000000 -32.862282
LeftShoulder -29.549442 35.502937 -8.567494
LeftArm 22.037229 -16.610422 -68.442244
LeftForeArm 34.084616 -0.000000 13.522895
LeftHand -17.074175 -0.000000 -13.389941
LeftHandThumb1 -26.253704 0.000000 33.147579
Head 2.389554 -9.722542 -8.103228
811
root 3.185233 36.528629 2.799967 -36.418932 -18.795976 9.104168
RightUpLeg 29.728516 -1.747405 -5.644733
RightLeg 26.457007 -0.000000 -0.000000
RightFoot -27.149884 4.318332 11.288865
RightToeBase 14.413392 -0.000000 -0.000000
LeftUpLeg -81.543800 -1.125095 -31.384550
LeftLeg 119.548828 -0.000000 -0.000000
LeftFoot 15.604111 2.902083 -43.929641
LeftToeBase 1.163320 -0.000000 -0.000000
Spine 41.407523 16.519958 7.599935
RightShoulder 10.092825 -7.707790 -24.726873
RightArm 31.937126 18.872956 43.081663
RightForeArm -2.787638 -0.000000 74.893228
RightHand -1.337077 0.000000 -13.968040
RightHandThumb1 -24.326973 -0.000000 -32.862282
LeftShoulder -29.507061 35.442472 -8.569026
LeftArm 22.089292 -16.442719 -68.399405
LeftForeArm 34.104083 -0.000000 13.606530
LeftHand -17.085511 -0.000000 -13.414979
LeftHandThumb1 -26.253704 0.000000 33.147579
Head 2.404114 -9.723525 -8.139087
812
root 3.189360 36.527425 2.809382 -36.404193 -18.680906 9.136430
RightUpLeg 29.741589 -1.768464 -5.699099
RightLeg 26.441845 -0.000000 -0.000000
RightFoot -27.181896 4.195629 11.188434
RightToeBase 14.269628 -0.000000 -0.000000
LeftUpLeg -81.477815 -1.162691 -31.395516
LeftLeg 119.544676 -0.000000 -0.000000
LeftFoot 15.521551 2.781129 -43.907329
LeftToeBase 1.332593 -0.000000 -0.000000
Spine 41.363834 16.454784 7.509951
RightShoulder 10.033497 -7.722737 -24.721149
RightArm 31.974168 18.843645 43.101086
RightForeArm -2.862944 -0.000000 74.923827
RightHand -1.405583 -0.000000 -13.978946
RightHandThumb1 -24.326973 -0.000000 -32.862282
LeftShoulder -29.517095 35.423707 -8.586829
LeftArm 22.214297 -16.266267 -68.384562
LeftForeArm 34.273268 0.000000 13.679980
LeftHand -17.037143 0.000000 -13.557433
LeftHandThumb1 -26.253704 0.000000 33.147579
Head 2.417621 -9.727765 -8.145362
813
root 3.192093 36.527478 2.817761 -36.390122 -18.596688 9.162744
RightUpLeg 29.741268 -1.746833 -5.715709
RightLeg 26.446060 -0.000000 -0.000000
RightFoot -27.210649 4.143462 11.215214
RightToeBase 14.219251 -0.000000 -0.000000
LeftUpLeg -81.415771 -1.182404 -31.365776
LeftLeg 119.538050 -0.000000 -0.000000
LeftFoot 15.437982 2.648781 -43.875839
LeftToeBase 1.490990 -0.000000 -0.000000
Spine 41.321245 16.408777 7.453394
RightShoulder 9.983243 -7.721684 -24.704188
RightArm 31.977549 18.795194 43.070755
RightForeArm -2.819799 -0.000000 74.945641
RightHand -1.379505 -0.000000 -13.882930
RightHandThumb1 -24.326973 -0.000000 -32.862282
LeftShoulder -29.517602 35.439525 -8.609375
LeftArm 22.365408 -16.127539 -68.425357
LeftForeArm 34.348888 -0.000000 13.750400
LeftHand -16.959097 -0.000000 -13.567081
LeftHandThumb1 -26.253704 0.000000 33.147579
Head 2.456938 -9.721858 -8.165528
814
root 3.194582 36.527147 2.821020 -36.356972 -18.579102 9.188327
RightUpLeg 29.698553 -1.652913 -5.659681
RightLeg 26.456661 -0.000000 -0.000000
RightFoot -27.238870 4.006325 11.219320
RightToeBase 14.165527 -0.000000 -0.000000
LeftUpLeg -81.397216 -1.153347 -31.280665
LeftLeg 119.538056 -0.000000 -0.000000
LeftFoot 15.320172 2.518440 -43.790046
LeftToeBase 1.493678 -0.000000 -0.000000
Spine 41.272312 16.403794 7.447508
RightShoulder 9.943251 -7.716830 -24.695662
RightArm 31.961489 18.757419 43.039182
RightForeArm -2.833221 -0.000000 74.980086
RightHand -1.401047 -0.000000 -13.952064
RightHandThumb1 -24.326973 -0.000000 -32.862282
LeftShoulder -29.508332 35.428278 -8.655000
LeftArm 22.469178 -15.982272 -68.452370
LeftForeArm 34.333087 0.000000 13.852978
LeftHand -16.945261 -0.000000 -13.480405
LeftHandThumb1 -26.253704 0.000000 33.147579
Head 2.507821 -9.717689 -8.221505
